HIERARCHY
ROOT mixamorig:Hips
{
	OFFSET -0.000008 104.274872 1.554316
	CHANNELS 6 Xposition Yposition Zposition Xrotation Yrotation Zrotation
	JOINT mixamorig:Spine
	{
		OFFSET -0.000005 10.181595 0.131519
		CHANNELS 6 Xposition Yposition Zposition Xrotation Yrotation Zrotation
		JOINT mixamorig:Spine1
		{
			OFFSET -0.000000 9.893959 -1.470707
			CHANNELS 6 Xposition Yposition Zposition Xrotation Yrotation Zrotation
			JOINT mixamorig:Spine2
			{
				OFFSET -0.000000 9.220757 -1.370641
				CHANNELS 6 Xposition Yposition Zposition Xrotation Yrotation Zrotation
				JOINT mixamorig:Neck
				{
					OFFSET 0.000001 16.740417 -2.049036
					CHANNELS 6 Xposition Yposition Zposition Xrotation Yrotation Zrotation
					JOINT mixamorig:Head
					{
						OFFSET 0.000000 9.617874 1.685006
						CHANNELS 6 Xposition Yposition Zposition Xrotation Yrotation Zrotation
						JOINT mixamorig:HeadTop_End
						{
							OFFSET 0.000002 22.037354 7.501101
							CHANNELS 6 Xposition Yposition Zposition Xrotation Yrotation Zrotation
							End Site
							{
								OFFSET 0.000168 2310.654297 -282.823242
							}
						}
					}
				}
				JOINT mixamorig:RightShoulder
				{
					OFFSET -4.569970 11.014908 -2.160885
					CHANNELS 6 Xposition Yposition Zposition Xrotation Yrotation Zrotation
					JOINT mixamorig:RightArm
					{
						OFFSET -10.592851 -0.524811 -2.232101
						CHANNELS 6 Xposition Yposition Zposition Xrotation Yrotation Zrotation
						JOINT mixamorig:RightForeArm
						{
							OFFSET -27.841511 0.000031 -0.000004
							CHANNELS 6 Xposition Yposition Zposition Xrotation Yrotation Zrotation
							JOINT mixamorig:RightHand
							{
								OFFSET -28.328831 -0.000015 0.000015
								CHANNELS 6 Xposition Yposition Zposition Xrotation Yrotation Zrotation
								JOINT mixamorig:RightHandThumb1
								{
									OFFSET -2.464806 -1.573990 2.681852
									CHANNELS 6 Xposition Yposition Zposition Xrotation Yrotation Zrotation
									JOINT mixamorig:RightHandThumb2
									{
										OFFSET -3.215179 -1.872803 1.924282
										CHANNELS 6 Xposition Yposition Zposition Xrotation Yrotation Zrotation
										JOINT mixamorig:RightHandThumb3
										{
											OFFSET -2.654831 -1.527969 1.512609
											CHANNELS 6 Xposition Yposition Zposition Xrotation Yrotation Zrotation
											JOINT mixamorig:RightHandThumb4
											{
												OFFSET -2.018814 -1.152008 1.108052
												CHANNELS 6 Xposition Yposition Zposition Xrotation Yrotation Zrotation
												End Site
												{
													OFFSET -188.809540 -114.533607 132.431396
												}
											}
										}
									}
								}
								JOINT mixamorig:RightHandIndex1
								{
									OFFSET -9.108284 -0.517868 2.259835
									CHANNELS 6 Xposition Yposition Zposition Xrotation Yrotation Zrotation
									JOINT mixamorig:RightHandIndex2
									{
										OFFSET -3.699989 0.000000 0.001215
										CHANNELS 6 Xposition Yposition Zposition Xrotation Yrotation Zrotation
										JOINT mixamorig:RightHandIndex3
										{
											OFFSET -2.850006 0.000031 -0.000522
											CHANNELS 6 Xposition Yposition Zposition Xrotation Yrotation Zrotation
											JOINT mixamorig:RightHandIndex4
											{
												OFFSET -2.772186 -0.000015 -0.000020
												CHANNELS 6 Xposition Yposition Zposition Xrotation Yrotation Zrotation
												End Site
												{
													OFFSET -277.218445 0.000000 -0.050231
												}
											}
										}
									}
								}
								JOINT mixamorig:RightHandMiddle1
								{
									OFFSET -9.532516 -0.000031 -0.000023
									CHANNELS 6 Xposition Yposition Zposition Xrotation Yrotation Zrotation
									JOINT mixamorig:RightHandMiddle2
									{
										OFFSET -3.700005 -0.000015 0.003713
										CHANNELS 6 Xposition Yposition Zposition Xrotation Yrotation Zrotation
										JOINT mixamorig:RightHandMiddle3
										{
											OFFSET -2.949974 0.000015 -0.002054
											CHANNELS 6 Xposition Yposition Zposition Xrotation Yrotation Zrotation
											JOINT mixamorig:RightHandMiddle4
											{
												OFFSET -2.946640 0.000000 -0.000156
												CHANNELS 6 Xposition Yposition Zposition Xrotation Yrotation Zrotation
												End Site
												{
													OFFSET -294.664337 0.000000 -0.113670
												}
											}
										}
									}
								}
								JOINT mixamorig:RightHandRing1
								{
									OFFSET -9.103600 -0.043076 -1.865134
									CHANNELS 6 Xposition Yposition Zposition Xrotation Yrotation Zrotation
									JOINT mixamorig:RightHandRing2
									{
										OFFSET -3.379288 0.000000 -0.001055
										CHANNELS 6 Xposition Yposition Zposition Xrotation Yrotation Zrotation
										JOINT mixamorig:RightHandRing3
										{
											OFFSET -2.889687 -0.000015 0.000379
											CHANNELS 6 Xposition Yposition Zposition Xrotation Yrotation Zrotation
											JOINT mixamorig:RightHandRing4
											{
												OFFSET -2.638809 -0.000015 0.000941
												CHANNELS 6 Xposition Yposition Zposition Xrotation Yrotation Zrotation
												End Site
												{
													OFFSET -263.880371 0.000000 0.516020
												}
											}
										}
									}
								}
								JOINT mixamorig:RightHandPinky1
								{
									OFFSET -8.076683 -0.486710 -3.806280
									CHANNELS 6 Xposition Yposition Zposition Xrotation Yrotation Zrotation
									JOINT mixamorig:RightHandPinky2
									{
										OFFSET -3.600014 -0.000015 -0.003747
										CHANNELS 6 Xposition Yposition Zposition Xrotation Yrotation Zrotation
										JOINT mixamorig:RightHandPinky3
										{
											OFFSET -2.099983 0.000000 -0.005739
											CHANNELS 6 Xposition Yposition Zposition Xrotation Yrotation Zrotation
											JOINT mixamorig:RightHandPinky4
											{
												OFFSET -2.115768 -0.000031 -0.003680
												CHANNELS 6 Xposition Yposition Zposition Xrotation Yrotation Zrotation
												End Site
												{
													OFFSET -211.577087 0.000000 -0.350686
												}
											}
										}
									}
								}
							}
						}
					}
				}
				JOINT mixamorig:LeftShoulder
				{
					OFFSET 4.570447 11.014725 -2.160855
					CHANNELS 6 Xposition Yposition Zposition Xrotation Yrotation Zrotation
					JOINT mixamorig:LeftArm
					{
						OFFSET 10.592371 -0.524597 -2.232119
						CHANNELS 6 Xposition Yposition Zposition Xrotation Yrotation Zrotation
						JOINT mixamorig:LeftForeArm
						{
							OFFSET 27.841532 -0.000031 0.000026
							CHANNELS 6 Xposition Yposition Zposition Xrotation Yrotation Zrotation
							JOINT mixamorig:LeftHand
							{
								OFFSET 28.328846 -0.000061 0.000022
								CHANNELS 6 Xposition Yposition Zposition Xrotation Yrotation Zrotation
								JOINT mixamorig:LeftHandThumb1
								{
									OFFSET 2.466141 -1.576172 2.681732
									CHANNELS 6 Xposition Yposition Zposition Xrotation Yrotation Zrotation
									JOINT mixamorig:LeftHandThumb2
									{
										OFFSET 3.217812 -1.872070 1.916482
										CHANNELS 6 Xposition Yposition Zposition Xrotation Yrotation Zrotation
										JOINT mixamorig:LeftHandThumb3
										{
											OFFSET 2.656029 -1.528778 1.514513
											CHANNELS 6 Xposition Yposition Zposition Xrotation Yrotation Zrotation
											JOINT mixamorig:LeftHandThumb4
											{
												OFFSET 2.020889 -1.154053 1.115139
												CHANNELS 6 Xposition Yposition Zposition Xrotation Yrotation Zrotation
												End Site
												{
													OFFSET 190.885437 -115.081749 130.048782
												}
											}
										}
									}
								}
								JOINT mixamorig:LeftHandIndex1
								{
									OFFSET 9.109314 -0.518021 2.259871
									CHANNELS 6 Xposition Yposition Zposition Xrotation Yrotation Zrotation
									JOINT mixamorig:LeftHandIndex2
									{
										OFFSET 3.699989 0.000000 -0.000322
										CHANNELS 6 Xposition Yposition Zposition Xrotation Yrotation Zrotation
										JOINT mixamorig:LeftHandIndex3
										{
											OFFSET 2.850006 0.000000 0.000352
											CHANNELS 6 Xposition Yposition Zposition Xrotation Yrotation Zrotation
											JOINT mixamorig:LeftHandIndex4
											{
												OFFSET 2.774864 -0.000031 -0.000027
												CHANNELS 6 Xposition Yposition Zposition Xrotation Yrotation Zrotation
												End Site
												{
													OFFSET 277.486267 0.000000 -0.009857
												}
											}
										}
									}
								}
								JOINT mixamorig:LeftHandMiddle1
								{
									OFFSET 9.533394 0.000061 0.000044
									CHANNELS 6 Xposition Yposition Zposition Xrotation Yrotation Zrotation
									JOINT mixamorig:LeftHandMiddle2
									{
										OFFSET 3.699989 -0.000015 -0.000231
										CHANNELS 6 Xposition Yposition Zposition Xrotation Yrotation Zrotation
										JOINT mixamorig:LeftHandMiddle3
										{
											OFFSET 2.949997 -0.000015 -0.000059
											CHANNELS 6 Xposition Yposition Zposition Xrotation Yrotation Zrotation
											JOINT mixamorig:LeftHandMiddle4
											{
												OFFSET 2.952896 0.000031 0.000063
												CHANNELS 6 Xposition Yposition Zposition Xrotation Yrotation Zrotation
												End Site
												{
													OFFSET 295.289337 0.000000 0.022810
												}
											}
										}
									}
								}
								JOINT mixamorig:LeftHandRing1
								{
									OFFSET 9.104523 -0.042999 -1.865074
									CHANNELS 6 Xposition Yposition Zposition Xrotation Yrotation Zrotation
									JOINT mixamorig:LeftHandRing2
									{
										OFFSET 3.150009 -0.000031 0.000043
										CHANNELS 6 Xposition Yposition Zposition Xrotation Yrotation Zrotation
										JOINT mixamorig:LeftHandRing3
										{
											OFFSET 2.949982 -0.000015 0.000040
											CHANNELS 6 Xposition Yposition Zposition Xrotation Yrotation Zrotation
											JOINT mixamorig:LeftHandRing4
											{
												OFFSET 2.644348 0.000000 0.000057
												CHANNELS 6 Xposition Yposition Zposition Xrotation Yrotation Zrotation
												End Site
												{
													OFFSET 264.434631 0.000000 0.012105
												}
											}
										}
									}
								}
								JOINT mixamorig:LeftHandPinky1
								{
									OFFSET 8.077789 -0.486847 -3.806259
									CHANNELS 6 Xposition Yposition Zposition Xrotation Yrotation Zrotation
									JOINT mixamorig:LeftHandPinky2
									{
										OFFSET 3.599953 0.000031 0.014727
										CHANNELS 6 Xposition Yposition Zposition Xrotation Yrotation Zrotation
										JOINT mixamorig:LeftHandPinky3
										{
											OFFSET 2.100021 0.000015 0.007705
											CHANNELS 6 Xposition Yposition Zposition Xrotation Yrotation Zrotation
											JOINT mixamorig:LeftHandPinky4
											{
												OFFSET 2.125504 0.000031 0.007517
												CHANNELS 6 Xposition Yposition Zposition Xrotation Yrotation Zrotation
												End Site
												{
													OFFSET 212.550781 0.000000 0.625752
												}
											}
										}
									}
								}
							}
						}
					}
				}
			}
		}
	}
	JOINT mixamorig:RightUpLeg
	{
		OFFSET -8.207787 -6.751648 -1.599560
		CHANNELS 6 Xposition Yposition Zposition Xrotation Yrotation Zrotation
		JOINT mixamorig:RightLeg
		{
			OFFSET -0.000002 -44.370117 0.345942
			CHANNELS 6 Xposition Yposition Zposition Xrotation Yrotation Zrotation
			JOINT mixamorig:RightFoot
			{
				OFFSET 0.000003 -44.423679 -3.043532
				CHANNELS 6 Xposition Yposition Zposition Xrotation Yrotation Zrotation
				JOINT mixamorig:RightToeBase
				{
					OFFSET -0.000002 -8.728671 10.710558
					CHANNELS 6 Xposition Yposition Zposition Xrotation Yrotation Zrotation
					JOINT mixamorig:RightToe_End
					{
						OFFSET -0.000001 -0.000679 9.278119
						CHANNELS 6 Xposition Yposition Zposition Xrotation Yrotation Zrotation
						End Site
						{
							OFFSET 0.000000 -0.067690 927.812134
						}
					}
				}
			}
		}
	}
	JOINT mixamorig:LeftUpLeg
	{
		OFFSET 8.207793 -6.751686 -1.599556
		CHANNELS 6 Xposition Yposition Zposition Xrotation Yrotation Zrotation
		JOINT mixamorig:LeftLeg
		{
			OFFSET -0.000004 -44.370014 0.346954
			CHANNELS 6 Xposition Yposition Zposition Xrotation Yrotation Zrotation
			JOINT mixamorig:LeftFoot
			{
				OFFSET -0.000001 -44.423672 -3.044401
				CHANNELS 6 Xposition Yposition Zposition Xrotation Yrotation Zrotation
				JOINT mixamorig:LeftToeBase
				{
					OFFSET -0.000002 -8.728669 10.710558
					CHANNELS 6 Xposition Yposition Zposition Xrotation Yrotation Zrotation
					JOINT mixamorig:LeftToe_End
					{
						OFFSET -0.000003 -0.000679 9.278133
						CHANNELS 6 Xposition Yposition Zposition Xrotation Yrotation Zrotation
						End Site
						{
							OFFSET 0.000000 -0.068021 927.813477
						}
					}
				}
			}
		}
	}
}
MOTION
Frames: 3
Frame Time: 0.033333
0.000006 104.270477 1.554256 0.000010 0.000003 -0.000113 -0.000005 10.181587 0.131522 0.000001 -0.000003 0.000084 -0.000000 9.893967 -1.470711 0.000001 0.000000 -0.000000 -0.000000 9.220802 -1.370642 0.000000 -0.000000 -0.000000 0.000001 16.740433 -2.049030 0.000000 -0.000000 -0.000000 0.000000 9.617859 1.685014 0.000000 0.000000 0.000000 0.000002 22.037384 7.501101 0.000000 -0.000000 0.000000 -4.569968 11.014880 -2.160881 0.000008 0.000001 -0.000038 -10.592866 -0.524673 -2.232024 72.539143 6.486185 -4.761632 -27.841545 0.000017 0.000541 117.669953 61.197566 -88.714677 -28.328821 0.000008 0.000024 -0.000321 -0.000045 0.000007 -2.464444 -1.573889 2.682385 -33.770573 -158.442343 22.050099 -3.215271 -1.872627 1.924682 160.582296 29.909344 -7.985462 -2.654952 -1.527915 1.513122 149.979234 24.604225 -50.830756 -2.018831 -1.151999 1.108060 -0.000001 0.000000 0.000004 -9.108401 -0.517575 2.260100 93.647925 19.561880 -20.872503 -3.700090 0.000302 0.001474 89.814788 17.095031 -17.016209 -2.850079 0.000335 -0.000287 88.350997 13.816742 -13.427402 -2.772163 -0.000015 -0.000014 0.000003 0.000001 0.000003 -9.532598 0.000275 0.000201 85.810112 15.047412 -14.127725 -3.700070 0.000326 0.003942 87.213839 11.885637 -11.234974 -2.950082 0.000320 -0.001848 85.548591 12.297211 -11.376741 -2.946627 0.000000 -0.000162 -0.000000 -0.000001 0.000001 -9.103691 -0.042748 -1.864909 84.845334 16.205075 -14.784651 -3.379325 0.000306 -0.000849 87.395043 8.649564 -8.282725 -2.889757 0.000348 0.000587 87.372005 6.695312 -6.439052 -2.638811 -0.000017 0.000948 -0.000001 -0.000003 0.000001 -8.076748 -0.486384 -3.806069 79.050683 15.534130 -12.718310 -3.600029 0.000282 -0.003552 82.656033 7.429657 -6.226951 -2.099999 0.000315 -0.005559 80.148001 5.240077 -4.225519 -2.115759 -0.000055 -0.003677 0.000001 -0.000002 -0.000004 4.570446 11.014691 -2.160851 -0.000018 0.000010 -0.000021 10.592363 -0.524534 -2.232274 68.523818 7.064286 -4.815252 27.841843 0.000124 -0.000224 104.803406 -61.875503 75.791863 28.328833 -0.000030 0.000018 0.000019 -0.000089 -0.000000 2.466144 -1.576142 2.681876 -9.773612 151.438203 -59.990043 3.217798 -1.871717 1.916368 158.271001 -31.468877 -0.655456 2.656104 -1.528614 1.514448 146.556817 -26.762452 38.476078 2.020886 -1.154074 1.115140 -0.000001 0.000002 0.000008 9.109376 -0.517824 2.259729 89.890282 -16.870986 16.826724 3.700031 0.000156 -0.000470 86.803952 -16.261953 15.406668 2.850069 0.000185 0.000194 85.990982 -14.001376 13.061670 2.774891 -0.000014 -0.000020 0.000002 -0.000002 -0.000002 9.533457 0.000244 -0.000080 89.584071 -15.056848 14.940465 3.700054 0.000204 -0.000366 92.433100 -13.512825 14.090585 2.950074 0.000186 -0.000189 93.318573 -16.504573 17.477763 2.952883 -0.000046 0.000063 0.000002 0.000001 -0.000001 9.104578 -0.042826 -1.865232 88.454379 -15.098900 14.703314 3.150031 0.000228 -0.000087 95.600696 -11.886366 13.100864 2.950026 0.000196 -0.000088 97.101514 -12.906267 14.598626 2.644333 0.000030 0.000062 -0.000002 -0.000002 -0.000000 8.077852 -0.486703 -3.806391 79.774506 -16.896435 14.648334 3.600004 0.000203 0.014573 84.210352 -13.304584 12.495125 2.100051 0.000207 0.007527 86.870485 -12.150527 11.966317 2.125510 -0.000000 0.007511 0.000002 0.000000 0.000000 -8.207786 -6.751667 -1.599560 -0.077001 -0.000003 0.000080 -0.000002 -44.370110 0.345938 0.153719 -0.000000 -0.000000 0.000000 -44.423679 -3.043532 -0.076700 0.000000 -0.000002 -0.000006 -8.728667 10.710559 -0.000009 -0.000000 -0.000000 -0.000001 -0.000679 9.278123 0.000000 -0.000000 -0.000000 8.207792 -6.751710 -1.599556 -0.074518 -0.000003 0.000081 -0.000002 -44.370014 0.346960 0.148822 0.000002 0.000000 -0.000001 -44.423664 -3.044403 -0.074314 0.000000 -0.000002 -0.000004 -8.728671 10.710558 0.000007 -0.000000 -0.000000 0.000000 -0.000680 9.278137 -0.000000 0.000000 -0.000001 
0.000006 104.270477 1.554256 0.000010 0.000003 -0.000113 -0.000005 10.181587 0.131522 0.000001 -0.000003 0.000084 -0.000000 9.893967 -1.470711 0.000001 0.000000 -0.000000 -0.000000 9.220802 -1.370642 0.000000 -0.000000 -0.000000 0.000001 16.740433 -2.049030 0.000000 -0.000000 -0.000000 0.000000 9.617859 1.685014 0.000000 0.000000 0.000000 0.000002 22.037384 7.501101 0.000000 -0.000000 0.000000 -4.569968 11.014880 -2.160881 0.000008 0.000001 -0.000038 -10.592877 -0.524707 -2.231982 71.929781 14.252211 -10.366799 -27.841539 0.000026 0.000543 119.195366 63.849537 -93.436810 -28.328827 0.000021 0.000020 -0.000317 -0.000047 0.000006 -2.464434 -1.573782 2.682357 -44.847288 -165.184573 -1.700925 -3.215290 -1.872590 1.924648 155.598239 31.297166 1.256445 -2.654955 -1.527898 1.513085 146.188970 26.716816 -41.235365 -2.018823 -1.151996 1.108066 -0.000004 -0.000002 0.000004 -9.108387 -0.517563 2.260082 90.229784 16.201835 -16.312898 -3.700076 0.000311 0.001466 88.024760 13.645792 -13.164577 -2.850077 0.000356 -0.000296 87.003517 10.889449 -10.336540 -2.772164 -0.000016 -0.000018 -0.000003 0.000001 0.000003 -9.532591 0.000269 0.000194 85.759746 13.729018 -12.886660 -3.700066 0.000319 0.003932 85.147952 11.202390 -10.210595 -2.950077 0.000322 -0.001852 87.007355 11.435413 -10.850027 -2.946624 0.000014 -0.000149 -0.000005 0.000000 -0.000000 -9.103693 -0.042755 -1.864921 83.332679 15.862365 -14.095401 -3.379316 0.000325 -0.000847 84.434348 8.074135 -7.343184 -2.889755 0.000356 0.000601 89.939945 5.861537 -5.900215 -2.638826 -0.000014 0.000934 0.000002 0.000003 0.000000 -8.076756 -0.486387 -3.806072 78.350767 15.528044 -12.557077 -3.600029 0.000277 -0.003565 80.139518 6.183549 -4.912554 -2.100004 0.000318 -0.005528 84.071631 4.179805 -3.574826 -2.115764 -0.000042 -0.003684 0.000001 -0.000000 -0.000005 4.570446 11.014691 -2.160851 -0.000018 0.000010 -0.000021 10.592358 -0.524550 -2.232272 69.164005 13.843520 -9.567932 27.841841 0.000109 -0.000200 104.914151 -64.913087 79.220632 28.328854 -0.000044 0.000027 0.000020 -0.000089 0.000000 2.466239 -1.576070 2.681849 7.852008 165.158755 -97.544425 3.217829 -1.871724 1.916389 165.509322 -30.138654 7.787370 2.656106 -1.528644 1.514462 147.412667 -25.334212 50.284881 2.020898 -1.154084 1.115150 0.000001 -0.000001 0.000003 9.109395 -0.517856 2.259762 89.254931 -20.270847 20.001594 3.700036 0.000150 -0.000475 87.170692 -13.241704 12.624867 2.850052 0.000193 0.000188 86.346910 -10.660350 10.003703 2.774881 -0.000015 -0.000025 -0.000001 -0.000003 -0.000003 9.533483 0.000203 -0.000068 89.041392 -18.084374 17.780263 3.700047 0.000198 -0.000392 91.714004 -10.326742 10.635919 2.950058 0.000207 -0.000200 92.669944 -10.793513 11.308314 2.952861 -0.000034 0.000057 0.000001 -0.000001 0.000002 9.104590 -0.042848 -1.865217 89.135820 -17.655112 17.396826 3.150031 0.000216 -0.000105 92.435586 -10.999370 11.475921 2.950023 0.000199 -0.000096 93.647665 -9.656211 10.289911 2.644327 0.000030 0.000055 -0.000001 0.000002 -0.000001 8.077845 -0.486721 -3.806396 81.401259 -19.405751 17.255542 3.600014 0.000191 0.014561 81.792082 -15.522144 13.918180 2.100045 0.000173 0.007549 84.085311 -11.473096 10.785279 2.125510 -0.000025 0.007512 -0.000001 -0.000002 -0.000003 -8.207786 -6.751667 -1.599560 -0.077001 -0.000003 0.000080 -0.000002 -44.370110 0.345938 0.153719 -0.000000 -0.000000 0.000000 -44.423679 -3.043532 -0.076700 0.000000 -0.000002 -0.000006 -8.728667 10.710559 -0.000009 -0.000000 -0.000000 -0.000001 -0.000679 9.278123 0.000000 -0.000000 -0.000000 8.207792 -6.751710 -1.599556 -0.074518 -0.000003 0.000081 -0.000002 -44.370014 0.346960 0.148822 0.000002 0.000000 -0.000001 -44.423664 -3.044403 -0.074314 0.000000 -0.000002 -0.000004 -8.728671 10.710558 0.000007 -0.000000 -0.000000 0.000000 -0.000680 9.278137 -0.000000 0.000000 -0.000001 
0.000006 104.270477 1.554256 0.000010 0.000003 -0.000113 -0.000005 10.181587 0.131522 0.000001 -0.000003 0.000084 -0.000000 9.893967 -1.470711 0.000001 0.000000 -0.000000 -0.000000 9.220802 -1.370642 0.000000 -0.000000 -0.000000 0.000001 16.740433 -2.049030 0.000000 -0.000000 -0.000000 0.000000 9.617859 1.685014 0.000000 0.000000 0.000000 0.000002 22.037384 7.501101 0.000000 -0.000000 0.000000 -4.569968 11.014880 -2.160881 0.000008 0.000001 -0.000038 -10.592883 -0.524733 -2.231963 70.972277 21.003890 -15.057002 -27.841537 0.000001 0.000532 121.266553 67.475951 -99.769659 -28.328825 0.000018 0.000023 -0.000320 -0.000046 0.000006 -2.464443 -1.573787 2.682337 -46.759315 -167.289078 -6.507917 -3.215281 -1.872609 1.924658 156.089493 30.929709 -1.162710 -2.654950 -1.527889 1.513081 145.962030 26.741415 -41.554878 -2.018826 -1.152012 1.108058 -0.000001 0.000002 0.000002 -9.108388 -0.517553 2.260077 90.106171 16.427957 -16.504828 -3.700073 0.000320 0.001461 87.455832 14.112605 -13.482494 -2.850106 0.000340 -0.000306 86.271361 11.168860 -10.467869 -2.772146 -0.000015 -0.000025 0.000002 -0.000002 -0.000001 -9.532591 0.000255 0.000197 85.590651 14.305536 -13.384619 -3.700074 0.000322 0.003936 85.367884 11.772185 -10.775480 -2.950065 0.000324 -0.001855 87.187768 11.670503 -11.108103 -2.946647 0.000015 -0.000153 -0.000001 0.000001 -0.000000 -9.103706 -0.042772 -1.864919 83.328663 16.081482 -14.290091 -3.379326 0.000326 -0.000848 84.892783 8.675944 -7.953292 -2.889747 0.000345 0.000603 90.309847 6.151087 -6.229658 -2.638813 -0.000014 0.000939 0.000000 0.000001 -0.000002 -8.076750 -0.486400 -3.806074 78.184062 15.834310 -12.770096 -3.600032 0.000278 -0.003564 80.389155 6.844175 -5.490211 -2.100038 0.000316 -0.005528 84.477474 4.405691 -3.804844 -2.115756 -0.000055 -0.003683 -0.000001 0.000002 -0.000005 4.570446 11.014691 -2.160851 -0.000018 0.000010 -0.000021 10.592364 -0.524524 -2.232290 68.630116 5.426656 -3.705314 27.841831 0.000091 -0.000211 105.506465 -66.441464 81.479184 28.328846 -0.000013 0.000021 0.000020 -0.000089 0.000000 2.466266 -1.576024 2.681833 10.879364 167.899505 -103.882451 3.217851 -1.871797 1.916400 166.655837 -24.739881 28.211232 2.656091 -1.528669 1.514467 146.608426 -25.678419 49.392267 2.020879 -1.154062 1.115145 -0.000001 0.000003 0.000004 9.109385 -0.517850 2.259734 90.649806 -19.725856 19.933431 3.700047 0.000165 -0.000463 87.915852 -12.103961 11.690689 2.850041 0.000226 0.000199 86.770996 -9.572751 9.048962 2.774888 -0.000044 -0.000020 -0.000000 0.000001 -0.000000 9.533474 0.000223 -0.000071 89.440726 -18.060912 17.879376 3.700028 0.000204 -0.000384 92.497031 -9.434389 9.850054 2.950044 0.000200 -0.000212 93.133099 -9.716972 10.263560 2.952871 -0.000047 0.000062 -0.000000 -0.000000 0.000001 9.104592 -0.042844 -1.865236 89.311096 -17.372530 17.169957 3.150047 0.000221 -0.000098 93.067953 -10.702925 11.290116 2.949990 0.000206 -0.000086 93.608767 -9.161631 9.756664 2.644332 0.000016 0.000054 -0.000002 0.000000 0.000000 8.077847 -0.486714 -3.806425 81.991025 -19.148384 17.206566 3.600006 0.000168 0.014588 81.554610 -15.864366 14.158811 2.100045 0.000175 0.007548 82.719096 -11.722713 10.752613 2.125488 -0.000002 0.007513 0.000001 0.000001 -0.000003 -8.207786 -6.751667 -1.599560 -0.077001 -0.000003 0.000080 -0.000002 -44.370110 0.345938 0.153719 -0.000000 -0.000000 0.000000 -44.423679 -3.043532 -0.076700 0.000000 -0.000002 -0.000006 -8.728667 10.710559 -0.000009 -0.000000 -0.000000 -0.000001 -0.000679 9.278123 0.000000 -0.000000 -0.000000 8.207792 -6.751710 -1.599556 -0.074518 -0.000003 0.000081 -0.000002 -44.370014 0.346960 0.148822 0.000002 0.000000 -0.000001 -44.423664 -3.044403 -0.074314 0.000000 -0.000002 -0.000004 -8.728671 10.710558 0.000007 -0.000000 -0.000000 0.000000 -0.000680 9.278137 -0.000000 0.000000 -0.000001 
